General
ID                               : 1 (0x1)
\ATP.2011.Miami.Final.Nadal.vs.Djokovic.ENG.1080i\ATP.2011.Miami.Final.Nadal.vs.Djokovic.ENG.1080i.ts
Format                           : MPEG-TS
File size                        : 14.5 GiB
Duration                         : 3h 40mn
Overall bit rate                 : 9 438 Kbps

Video
ID                               : 163 (0xA3)
Menu ID                          : 1 (0x1)
Format                           : AVC
Format/Info                      : Advanced Video Codec
Format profile                   : High@L4.0
Format settings, CABAC           : Yes
Format settings, ReFrames        : 4 frames
Codec ID                         : 27
Duration                         : 3h 40mn
Bit rate                         : 8 810 Kbps
Width                            : 1 920 pixels
Height                           : 1 080 pixels
Display aspect ratio             : 16:9
Frame rate                       : 25.000 fps
Color space                      : YUV
Chroma subsampling               : 4:2:0
Bit depth                        : 8 bits
Scan type                        : Interlaced
Scan order                       : Top Field First
Bits/(Pixel*Frame)               : 0.170
Stream size                      : 13.6 GiB (93%)
Color primaries                  : BT.709-5, BT.1361, IEC 61966-2-4, SMPTE RP177
Transfer characteristics         : BT.709-5, BT.1361
Matrix coefficients              : BT.709-5, BT.1361, IEC 61966-2-4 709, SMPTE RP177

Audio
ID                               : 99 (0x63)
Menu ID                          : 1 (0x1)
Format                           : MPEG Audio
Format version                   : Version 1
Format profile                   : Layer 2
Codec ID                         : 3
Duration                         : 3h 40mn
Bit rate mode                    : Constant
Bit rate                         : 160 Kbps
Channel(s)                       : 2 channels
Sampling rate                    : 48.0 KHz
Compression mode                 : Lossy
Stream size                      : 252 MiB (2%)
Language                         : dos

